<svg width="960" height="320" viewBox="0 0 960 320" fill="none" xmlns="http://www.w3.org/2000/svg" role="img" aria-labelledby="title desc">
  <title id="title">Coremi Team Community Lite</title>
  <desc id="desc">A clean Coremi Team wordmark with a circular multi-agent icon.</desc>
  <rect width="960" height="320" rx="36" fill="#FAFBF8"/>
  <circle cx="248" cy="160" r="78" fill="#0F1720"/>
  <circle cx="248" cy="160" r="58" fill="#FAFBF8"/>
  <path d="M248 82a78 78 0 0 1 73.84 53.02l-38.82 13.15A37.04 37.04 0 0 0 248 123V82Z" fill="#5B7CFA"/>
  <path d="M321.84 135.02A78 78 0 0 1 274.25 233.48l-13.79-38.6a37.04 37.04 0 0 0 22.56-46.71l38.82-13.15Z" fill="#5DDED0"/>
  <path d="M274.25 233.48A78 78 0 0 1 174.16 184.98l38.82-13.15a37.04 37.04 0 0 0 47.48 23.05l13.79 38.6Z" fill="#1B9AAA"/>
  <path d="M174.16 184.98A78 78 0 0 1 248 82v41a37.04 37.04 0 0 0-35.02 48.83l-38.82 13.15Z" fill="#8AF0D2"/>
  <circle cx="248" cy="160" r="26" fill="#0F1720"/>
  <circle cx="248" cy="160" r="10" fill="#FAFBF8"/>
  <line x1="374" y1="82" x2="374" y2="238" stroke="#D7E0DF" stroke-width="4"/>
  <text x="412" y="144" fill="#141A22" font-family="Inter, ui-sans-serif, system-ui, -apple-system, BlinkMacSystemFont, 'Segoe UI', sans-serif" font-size="78" font-weight="800" letter-spacing="0">Coremi Team</text>
  <text x="416" y="192" fill="#53616D" font-family="Inter, ui-sans-serif, system-ui, -apple-system, BlinkMacSystemFont, 'Segoe UI', sans-serif" font-size="26" font-style="italic">Local-first multi-model AI discussion workspace</text>
  <text x="416" y="232" fill="#78909C" font-family="Inter, ui-sans-serif, system-ui, -apple-system, BlinkMacSystemFont, 'Segoe UI', sans-serif" font-size="18" font-weight="700" letter-spacing="3">COMMUNITY LITE</text>
</svg>
